<svg pointer-events="none" stroke-width="1" stroke-dasharray="none" fill="black" stroke="black" shadowColor="black" font-family="Bravura,Academico" font-size="10pt" font-weight="normal" font-style="normal" width="600" height="270" viewBox="0 0 600 270">
<g class="vf-stave" id="vf-1" font-family="Arial">
<path fill="none" d="M15 152.5L595 152.5"></path>
<path fill="none" d="M15 165.5L595 165.5"></path>
<path fill="none" d="M15 178.5L595 178.5"></path>
<path fill="none" d="M15 191.5L595 191.5"></path>
<path fill="none" d="M15 204.5L595 204.5"></path>
<path fill="none" d="M15 217.5L595 217.5"></path></g>
<g class="vf-stavebarline" id="vf-2" font-family="Arial">
<rect x="15" y="152" width="1" height="66" stroke="none"></rect></g>
<g class="vf-stavebarline" id="vf-3" font-family="Arial">
<rect x="595" y="152" width="1" height="66" stroke="none"></rect></g>
<g class="vf-clef" id="vf-4" font-family="Arial">
<text stroke="none" font-family="Bravura,Academico" font-size="30pt" x="20" y="184.5"></text></g>
<g class="vf-stave" id="vf-5" font-family="Arial">
<path fill="none" d="M15 50.5L595 50.5"></path>
<path fill="none" d="M15 60.5L595 60.5"></path>
<path fill="none" d="M15 70.5L595 70.5"></path>
<path fill="none" d="M15 80.5L595 80.5"></path>
<path fill="none" d="M15 90.5L595 90.5"></path></g>
<g class="vf-stavebarline" id="vf-6" font-family="Arial">
<rect x="15" y="50" width="1" height="41" stroke="none"></rect></g>
<g class="vf-stavebarline" id="vf-7" font-family="Arial">
<rect x="595" y="50" width="1" height="41" stroke="none"></rect></g>
<g class="vf-clef" id="vf-8" font-family="Arial">
<text stroke="none" font-family="Bravura,Academico" font-size="30pt" x="20" y="80"></text></g>
<g class="vf-keysignature" id="vf-9" font-family="Arial"></g>
<g class="vf-tabnote" id="vf-10" font-family="Arial">
<rect x="53.5" y="201" width="10.67" height="6" fill="white" stroke="none"></rect>
<text stroke="none" font-family="Bravura,Academico" font-size="9pt" x="55.5" y="208.33">5</text></g>
<g class="vf-stavebarline" id="vf-11" font-family="Arial">
<rect x="110.16" y="152" width="1" height="66" stroke="none"></rect></g>
<g class="vf-tabnote" id="vf-12" font-family="Arial">
<rect x="133.74" y="201" width="10.67" height="6" fill="white" stroke="none"></rect>
<text stroke="none" font-family="Bravura,Academico" font-size="9pt" x="135.74" y="208.33">5</text></g>
<g class="vf-tabnote" id="vf-13" font-family="Arial">
<rect x="172.23" y="201" width="10.67" height="6" fill="white" stroke="none"></rect>
<text stroke="none" font-family="Bravura,Academico" font-size="9pt" x="174.23" y="208.33">7</text></g>
<g class="vf-stavebarline" id="vf-14" font-family="Arial">
<rect x="216.04" y="152" width="1" height="66" stroke="none"></rect></g>
<g class="vf-tabnote" id="vf-15" font-family="Arial">
<rect x="239.63" y="201" width="10.67" height="6" fill="white" stroke="none"></rect>
<text stroke="none" font-family="Bravura,Academico" font-size="9pt" x="241.63" y="208.33">5</text></g>
<g class="vf-tabnote" id="vf-16" font-family="Arial">
<rect x="272.95" y="201" width="10.67" height="6" fill="white" stroke="none"></rect>
<text stroke="none" font-family="Bravura,Academico" font-size="9pt" x="274.95" y="208.33">7</text></g>
<g class="vf-tabnote" id="vf-17" font-family="Arial">
<rect x="306.28" y="188" width="10.67" height="6" fill="white" stroke="none"></rect>
<text stroke="none" font-family="Bravura,Academico" font-size="9pt" x="308.28" y="195.33">5</text></g>
<g class="vf-tabnote" id="vf-18" font-family="Arial">
<rect x="339.6" y="188" width="10.67" height="6" fill="white" stroke="none"></rect>
<text stroke="none" font-family="Bravura,Academico" font-size="9pt" x="341.6" y="195.33">7</text></g>
<g class="vf-stavebarline" id="vf-19" font-family="Arial">
<rect x="378.26" y="152" width="1" height="66" stroke="none"></rect></g>
<g class="vf-tabnote" id="vf-20" font-family="Arial">
<rect x="401.85" y="201" width="10.67" height="6" fill="white" stroke="none"></rect>
<text stroke="none" font-family="Bravura,Academico" font-size="9pt" x="403.85" y="208.33">5</text></g>
<g class="vf-tabnote" id="vf-21" font-family="Arial">
<rect x="432.86" y="201" width="10.67" height="6" fill="white" stroke="none"></rect>
<text stroke="none" font-family="Bravura,Academico" font-size="9pt" x="434.86" y="208.33">7</text></g>
<g class="vf-tabnote" id="vf-22" font-family="Arial">
<rect x="463.87" y="188" width="10.67" height="6" fill="white" stroke="none"></rect>
<text stroke="none" font-family="Bravura,Academico" font-size="9pt" x="465.87" y="195.33">5</text></g>
<g class="vf-tabnote" id="vf-23" font-family="Arial">
<rect x="494.88" y="188" width="10.67" height="6" fill="white" stroke="none"></rect>
<text stroke="none" font-family="Bravura,Academico" font-size="9pt" x="496.88" y="195.33">7</text></g>
<g class="vf-tabnote" id="vf-24" font-family="Arial">
<rect x="525.89" y="175" width="10.67" height="6" fill="white" stroke="none"></rect>
<text stroke="none" font-family="Bravura,Academico" font-size="9pt" x="527.89" y="182.33">5</text></g>
<g class="vf-tabnote" id="vf-25" font-family="Arial">
<rect x="559.22" y="175" width="10.67" height="6" fill="white" stroke="none"></rect>
<text stroke="none" font-family="Bravura,Academico" font-size="9pt" x="561.22" y="182.33">7</text></g>
<g class="vf-stavenote" id="vf-26" font-family="Arial">
<g class="vf-notehead" id="vf-27">
<text stroke="none" font-family="Bravura,Academico" font-size="30pt" x="58.84" y="95"></text></g>
<rect x="58.84" y="90" width="16.88" height="10" opacity="0" pointer-events="auto"></rect></g>
<g class="vf-stavebarline" id="vf-28" font-family="Arial">
<rect x="110.16" y="50" width="1" height="41" stroke="none"></rect></g>
<g class="vf-stavenote" id="vf-29" font-family="Arial">
<g class="vf-stem" id="vf-30">
<path stroke-width="1.5" fill="none" d="M150.13 95L150.13 60"></path></g>
<g class="vf-notehead" id="vf-31">
<text stroke="none" font-family="Bravura,Academico" font-size="30pt" x="139.08" y="95"></text></g>
<rect x="139.08" y="60" width="11.8" height="40" opacity="0" pointer-events="auto"></rect></g>
<g class="vf-stavenote" id="vf-32" font-family="Arial">
<g class="vf-stem" id="vf-33">
<path stroke-width="1.5" fill="none" d="M188.61 90L188.61 55"></path></g>
<g class="vf-notehead" id="vf-34">
<text stroke="none" font-family="Bravura,Academico" font-size="30pt" x="177.56" y="90"></text></g>
<rect x="177.56" y="55" width="11.8" height="40" opacity="0" pointer-events="auto"></rect></g>
<g class="vf-stavebarline" id="vf-35" font-family="Arial">
<rect x="216.04" y="50" width="1" height="41" stroke="none"></rect></g>
<g class="vf-stavenote" id="vf-36" font-family="Arial">
<g class="vf-stem" id="vf-37">
<path stroke-width="1.5" fill="none" d="M256.02 95L256.02 60"></path></g>
<g class="vf-notehead" id="vf-38">
<text stroke="none" font-family="Bravura,Academico" font-size="30pt" x="244.97" y="95"></text></g>
<rect x="244.97" y="60" width="11.8" height="40" opacity="0" pointer-events="auto"></rect></g>
<g class="vf-stavenote" id="vf-39" font-family="Arial">
<g class="vf-stem" id="vf-40">
<path stroke-width="1.5" fill="none" d="M289.34 90L289.34 55"></path></g>
<g class="vf-notehead" id="vf-41">
<text stroke="none" font-family="Bravura,Academico" font-size="30pt" x="278.29" y="90"></text></g>
<rect x="278.29" y="55" width="11.8" height="40" opacity="0" pointer-events="auto"></rect></g>
<g class="vf-stavenote" id="vf-42" font-family="Arial">
<g class="vf-stem" id="vf-43">
<path stroke-width="1.5" fill="none" d="M322.66 80L322.66 45"></path></g>
<g class="vf-notehead" id="vf-44">
<text stroke="none" font-family="Bravura,Academico" font-size="30pt" x="311.61" y="80"></text></g>
<rect x="311.61" y="45" width="11.8" height="40" opacity="0" pointer-events="auto"></rect></g>
<g class="vf-stavenote" id="vf-45" font-family="Arial">
<g class="vf-stem" id="vf-46">
<path stroke-width="1.5" fill="none" d="M355.99 75L355.99 40"></path></g>
<g class="vf-notehead" id="vf-47">
<text stroke="none" font-family="Bravura,Academico" font-size="30pt" x="344.94" y="75"></text></g>
<rect x="344.94" y="40" width="11.8" height="40" opacity="0" pointer-events="auto"></rect></g>
<g class="vf-stavebarline" id="vf-48" font-family="Arial">
<rect x="378.26" y="50" width="1" height="41" stroke="none"></rect></g>
<g class="vf-stavenote" id="vf-49" font-family="Arial">
<g class="vf-notehead" id="vf-50">
<text stroke="none" font-family="Bravura,Academico" font-size="30pt" x="407.19" y="95"></text></g>
<rect x="407.19" y="60.36" width="11.8" height="39.64" opacity="0" pointer-events="auto"></rect></g>
<g class="vf-stavenote" id="vf-51" font-family="Arial">
<g class="vf-notehead" id="vf-52">
<text stroke="none" font-family="Bravura,Academico" font-size="30pt" x="438.2" y="90"></text></g>
<rect x="438.2" y="55.36" width="11.8" height="39.64" opacity="0" pointer-events="auto"></rect></g>
<g class="vf-stavenote" id="vf-53" font-family="Arial">
<g class="vf-notehead" id="vf-54">
<text stroke="none" font-family="Bravura,Academico" font-size="30pt" x="469.21" y="80"></text></g>
<rect x="469.21" y="45.36" width="11.8" height="39.64" opacity="0" pointer-events="auto"></rect></g>
<g class="vf-stavenote" id="vf-55" font-family="Arial">
<g class="vf-notehead" id="vf-56">
<text stroke="none" font-family="Bravura,Academico" font-size="30pt" x="500.22" y="75"></text></g>
<rect x="500.22" y="40.36" width="11.8" height="39.64" opacity="0" pointer-events="auto"></rect></g>
<g class="vf-stavenote" id="vf-57" font-family="Arial">
<g class="vf-stem" id="vf-58">
<path stroke-width="1.5" fill="none" d="M531.98 65L531.98 100"></path></g>
<g class="vf-notehead" id="vf-59">
<text stroke="none" font-family="Bravura,Academico" font-size="30pt" x="531.23" y="65"></text></g>
<rect x="531.23" y="60" width="11.8" height="40" opacity="0" pointer-events="auto"></rect></g>
<g class="vf-stavenote" id="vf-60" font-family="Arial">
<g class="vf-stem" id="vf-61">
<path stroke-width="1.5" fill="none" d="M565.3 60L565.3 95"></path></g>
<g class="vf-notehead" id="vf-62">
<text stroke="none" font-family="Bravura,Academico" font-size="30pt" x="564.55" y="60"></text></g>
<rect x="564.55" y="55" width="11.8" height="40" opacity="0" pointer-events="auto"></rect></g>
<g class="vf-beam" id="vf-63" font-family="Arial">
<g class="vf-stem" id="vf-64">
<path stroke-width="1.5" fill="none" d="M418.24 95L418.24 58.08"></path></g>
<g class="vf-stem" id="vf-65">
<path stroke-width="1.5" fill="none" d="M449.25 90L449.25 55.75"></path></g>
<path stroke="none" d="M417.49 57.38L417.49 62.38L449.5 60.06L449.5 55.06Z"></path></g>
<g class="vf-beam" id="vf-66" font-family="Arial">
<g class="vf-stem" id="vf-67">
<path stroke-width="1.5" fill="none" d="M480.26 80L480.26 43.08"></path></g>
<g class="vf-stem" id="vf-68">
<path stroke-width="1.5" fill="none" d="M511.27 75L511.27 40.75"></path></g>
<path stroke="none" d="M479.51 42.38L479.51 47.38L511.52 45.06L511.52 40.06Z"></path></g>
<text stroke="none" font-size="30pt" x="10" y="44"></text>
<text stroke="none" font-size="30pt" x="10" y="224"></text>
<rect x="10" y="44" width="3" height="180" stroke="none"></rect>
<text stroke="none" font-family="Times" font-weight="italic" x="187.78" y="265">vexflow.com</text></svg>
