<svg pointer-events="none" stroke-width="1" stroke-dasharray="none" fill="black" stroke="black" shadowColor="black" font-family="Bravura,Academico" font-size="10pt" font-weight="normal" font-style="normal" width="600" height="270" viewBox="0 0 600 270">
<g class="vf-stave" id="vf-1" font-family="Arial">
<path fill="none" d="M15 152.5L595 152.5"></path>
<path fill="none" d="M15 165.5L595 165.5"></path>
<path fill="none" d="M15 178.5L595 178.5"></path>
<path fill="none" d="M15 191.5L595 191.5"></path>
<path fill="none" d="M15 204.5L595 204.5"></path>
<path fill="none" d="M15 217.5L595 217.5"></path></g>
<g class="vf-stavebarline" id="vf-2" font-family="Arial">
<rect x="15" y="152" width="1" height="66" stroke="none"></rect></g>
<g class="vf-stavebarline" id="vf-3" font-family="Arial">
<rect x="595" y="152" width="1" height="66" stroke="none"></rect></g>
<g class="vf-clef" id="vf-4" font-family="Arial">
<text stroke="none" font-family="Bravura,Academico" font-size="30pt" x="20" y="184.5"></text></g>
<g class="vf-stave" id="vf-5" font-family="Arial">
<path fill="none" d="M15 50.5L595 50.5"></path>
<path fill="none" d="M15 60.5L595 60.5"></path>
<path fill="none" d="M15 70.5L595 70.5"></path>
<path fill="none" d="M15 80.5L595 80.5"></path>
<path fill="none" d="M15 90.5L595 90.5"></path></g>
<g class="vf-stavebarline" id="vf-6" font-family="Arial">
<rect x="15" y="50" width="1" height="41" stroke="none"></rect></g>
<g class="vf-stavebarline" id="vf-7" font-family="Arial">
<rect x="595" y="50" width="1" height="41" stroke="none"></rect></g>
<g class="vf-clef" id="vf-8" font-family="Arial">
<text stroke="none" font-family="Bravura,Academico" font-size="30pt" x="20" y="80"></text></g>
<g class="vf-keysignature" id="vf-9" font-family="Arial"></g>
<g class="vf-tabnote" id="vf-10" font-family="Arial">
<rect x="55.5" y="175" width="10.67" height="6" fill="white" stroke="none"></rect>
<text stroke="none" font-family="Bravura,Academico" font-size="9pt" x="57.5" y="182.33">5</text>
<text stroke="none" font-family="Bravura,Academico" font-size="30pt" x="62.18" y="232"></text></g>
<g class="vf-tabnote" id="vf-11" font-family="Arial">
<rect x="180.57" y="175" width="10.67" height="6" fill="white" stroke="none"></rect>
<text stroke="none" font-family="Bravura,Academico" font-size="9pt" x="182.57" y="182.33">7</text>
<text stroke="none" font-family="Bravura,Academico" font-size="30pt" x="182.46" y="230"></text></g>
<g class="vf-tabnote" id="vf-12" font-family="Arial">
<rect x="305.63" y="162" width="10.67" height="6" fill="white" stroke="none"></rect>
<text stroke="none" font-family="Bravura,Academico" font-size="9pt" x="307.63" y="169.33">5</text>
<text stroke="none" font-family="Bravura,Academico" font-size="30pt" x="307.55" y="230"></text></g>
<g class="vf-tabnote" id="vf-13" font-family="Arial">
<rect x="430.7" y="162" width="10.67" height="6" fill="white" stroke="none"></rect>
<text stroke="none" font-family="Bravura,Academico" font-size="9pt" x="432.7" y="169.33">7</text>
<text stroke="none" font-family="Bravura,Academico" font-size="30pt" x="427.27" y="138.88"></text></g>
<g class="vf-stavenote" id="vf-14" font-family="Arial">
<g class="vf-stem" id="vf-15">
<path stroke-width="1.5" fill="none" d="M61.59 65L61.59 100"></path></g>
<g class="vf-notehead" id="vf-16">
<text stroke="none" font-family="Bravura,Academico" font-size="30pt" x="60.84" y="65"></text>
<text stroke="none" font-family="Bravura,Academico" font-size="30pt" x="64.74" y="107"></text></g>
<rect x="60.84" y="60" width="11.8" height="49" opacity="0" pointer-events="auto"></rect></g>
<g class="vf-stavenote" id="vf-17" font-family="Arial">
<g class="vf-stem" id="vf-18">
<path stroke-width="1.5" fill="none" d="M186.66 60L186.66 95"></path></g>
<g class="vf-notehead" id="vf-19">
<text stroke="none" font-family="Bravura,Academico" font-size="30pt" x="185.91" y="60"></text>
<text stroke="none" font-family="Bravura,Academico" font-size="30pt" x="185.03" y="100"></text></g>
<rect x="185.03" y="55" width="13.56" height="54.76" opacity="0" pointer-events="auto"></rect></g>
<g class="vf-stavenote" id="vf-20" font-family="Arial">
<g class="vf-stem" id="vf-21">
<path stroke-width="1.5" fill="none" d="M311.72 55L311.72 90"></path></g>
<g class="vf-notehead" id="vf-22">
<text stroke="none" font-family="Bravura,Academico" font-size="30pt" x="310.97" y="55"></text>
<text stroke="none" font-family="Bravura,Academico" font-size="30pt" x="310.11" y="95"></text></g>
<rect x="310.11" y="50" width="13.52" height="46.92" opacity="0" pointer-events="auto"></rect></g>
<g class="vf-stavenote" id="vf-23" font-family="Arial">
<g class="vf-stem" id="vf-24">
<path stroke-width="1.5" fill="none" d="M436.79 50L436.79 85"></path></g>
<g class="vf-notehead" id="vf-25">
<text stroke="none" font-family="Bravura,Academico" font-size="30pt" x="436.04" y="50"></text>
<text stroke="none" font-family="Bravura,Academico" font-size="30pt" x="423.08" y="50"></text>
<text stroke="none" font-family="Bravura,Academico" font-size="30pt" x="429.84" y="39.88"></text></g>
<rect x="423.08" y="26.72" width="30.96" height="58.28" opacity="0" pointer-events="auto"></rect></g>
<text stroke="none" font-size="30pt" x="10" y="44"></text>
<text stroke="none" font-size="30pt" x="10" y="224"></text>
<rect x="10" y="44" width="3" height="180" stroke="none"></rect>
<text stroke="none" font-family="Times" font-weight="italic" x="187.78" y="265">vexflow.com</text></svg>
