<svg pointer-events="none" stroke-width="1" stroke-dasharray="none" fill="black" stroke="black" shadowColor="black" font-family="Bravura,Academico" font-size="10pt" font-weight="normal" font-style="normal" width="600" height="270" viewBox="0 0 600 270">
<g class="vf-stave" id="vf-1" font-family="Arial">
<path fill="none" d="M15 152.5L595 152.5"></path>
<path fill="none" d="M15 165.5L595 165.5"></path>
<path fill="none" d="M15 178.5L595 178.5"></path>
<path fill="none" d="M15 191.5L595 191.5"></path>
<path fill="none" d="M15 204.5L595 204.5"></path>
<path fill="none" d="M15 217.5L595 217.5"></path></g>
<g class="vf-stavebarline" id="vf-2" font-family="Arial">
<rect x="15" y="152" width="1" height="66" stroke="none"></rect></g>
<g class="vf-stavebarline" id="vf-3" font-family="Arial">
<rect x="595" y="152" width="1" height="66" stroke="none"></rect></g>
<g class="vf-clef" id="vf-4" font-family="Arial">
<text stroke="none" font-family="Bravura,Academico" font-size="30pt" x="20" y="184.5"></text></g>
<g class="vf-stave" id="vf-5" font-family="Arial">
<path fill="none" d="M15 50.5L595 50.5"></path>
<path fill="none" d="M15 60.5L595 60.5"></path>
<path fill="none" d="M15 70.5L595 70.5"></path>
<path fill="none" d="M15 80.5L595 80.5"></path>
<path fill="none" d="M15 90.5L595 90.5"></path></g>
<g class="vf-stavebarline" id="vf-6" font-family="Arial">
<rect x="15" y="50" width="1" height="41" stroke="none"></rect></g>
<g class="vf-stavebarline" id="vf-7" font-family="Arial">
<rect x="595" y="50" width="1" height="41" stroke="none"></rect></g>
<g class="vf-clef" id="vf-8" font-family="Arial">
<text stroke="none" font-family="Bravura,Academico" font-size="30pt" x="20" y="80"></text></g>
<g class="vf-keysignature" id="vf-9" font-family="Arial"></g>
<g class="vf-tabnote" id="vf-10" font-family="Arial">
<rect x="69.46" y="214" width="10.67" height="6" fill="white" stroke="none"></rect>
<text stroke="none" font-family="Bravura,Academico" font-size="9pt" x="71.46" y="221.33">0</text>
<rect x="69.46" y="201" width="10.67" height="6" fill="white" stroke="none"></rect>
<text stroke="none" font-family="Bravura,Academico" font-size="9pt" x="71.46" y="208.33">0</text>
<rect x="69.46" y="188" width="10.67" height="6" fill="white" stroke="none"></rect>
<text stroke="none" font-family="Bravura,Academico" font-size="9pt" x="71.46" y="195.33">0</text>
<rect x="69.46" y="175" width="10.67" height="6" fill="white" stroke="none"></rect>
<text stroke="none" font-family="Bravura,Academico" font-size="9pt" x="71.46" y="182.25">2</text>
<rect x="69.46" y="162" width="10.67" height="6" fill="white" stroke="none"></rect>
<text stroke="none" font-family="Bravura,Academico" font-size="9pt" x="71.46" y="169.33">3</text>
<rect x="69.46" y="149" width="10.67" height="6" fill="white" stroke="none"></rect>
<text stroke="none" font-family="Bravura,Academico" font-size="9pt" x="71.46" y="156.25">2</text></g>
<g class="vf-stavenote" id="vf-11" font-family="Arial">
<path stroke-width="2" fill="none" stroke="#444" d="M71.8 100L94.68 100"></path>
<path stroke-width="2" fill="none" stroke="#444" d="M71.8 110L94.68 110"></path>
<path stroke-width="2" fill="none" stroke="#444" d="M71.8 120L94.68 120"></path>
<path stroke-width="2" fill="none" stroke="#444" d="M71.8 130L94.68 130"></path>
<g class="vf-notehead" id="vf-12">
<text stroke="none" font-family="Bravura,Academico" font-size="30pt" x="74.8" y="130"></text></g>
<g class="vf-notehead" id="vf-13">
<text stroke="none" font-family="Bravura,Academico" font-size="30pt" x="74.8" y="110"></text></g>
<g class="vf-notehead" id="vf-14">
<text stroke="none" font-family="Bravura,Academico" font-size="30pt" x="74.8" y="95"></text></g>
<g class="vf-notehead" id="vf-15">
<text stroke="none" font-family="Bravura,Academico" font-size="30pt" x="74.8" y="75"></text></g>
<g class="vf-notehead" id="vf-16">
<text stroke="none" font-family="Bravura,Academico" font-size="30pt" x="74.8" y="60"></text></g>
<g class="vf-notehead" id="vf-17">
<text stroke="none" font-family="Bravura,Academico" font-size="30pt" x="74.8" y="50"></text>
<text stroke="none" font-family="Bravura,Academico" font-size="30pt" x="61.84" y="50"></text></g>
<rect x="61.84" y="36" width="29.84" height="99" opacity="0" pointer-events="auto"></rect></g>
<text stroke="none" font-size="30pt" x="10" y="44"></text>
<text stroke="none" font-size="30pt" x="10" y="224"></text>
<rect x="10" y="44" width="3" height="180" stroke="none"></rect>
<text stroke="none" font-family="Times" font-weight="italic" x="187.78" y="265">vexflow.com</text></svg>
