<svg pointer-events="none" stroke-width="1" stroke-dasharray="none" fill="black" stroke="black" shadowColor="black" font-family="Bravura,Academico" font-size="10pt" font-weight="normal" font-style="normal" width="600" height="290" viewBox="0 0 600 290">
<g class="vf-stave" id="vf-1" font-family="Arial">
<path fill="none" d="M15 172.5L595 172.5"></path>
<path fill="none" d="M15 185.5L595 185.5"></path>
<path fill="none" d="M15 198.5L595 198.5"></path>
<path fill="none" d="M15 211.5L595 211.5"></path>
<path fill="none" d="M15 224.5L595 224.5"></path>
<path fill="none" d="M15 237.5L595 237.5"></path></g>
<g class="vf-stavebarline" id="vf-2" font-family="Arial">
<rect x="15" y="172" width="1" height="66" stroke="none"></rect></g>
<g class="vf-stavebarline" id="vf-3" font-family="Arial">
<rect x="595" y="172" width="1" height="66" stroke="none"></rect></g>
<g class="vf-clef" id="vf-4" font-family="Arial">
<text stroke="none" font-family="Bravura,Academico" font-size="30pt" x="20" y="204.5"></text></g>
<g class="vf-stave" id="vf-5" font-family="Arial">
<path fill="none" d="M15 70.5L595 70.5"></path>
<path fill="none" d="M15 80.5L595 80.5"></path>
<path fill="none" d="M15 90.5L595 90.5"></path>
<path fill="none" d="M15 100.5L595 100.5"></path>
<path fill="none" d="M15 110.5L595 110.5"></path></g>
<g class="vf-stavebarline" id="vf-6" font-family="Arial">
<rect x="15" y="70" width="1" height="41" stroke="none"></rect></g>
<g class="vf-stavebarline" id="vf-7" font-family="Arial">
<rect x="595" y="70" width="1" height="41" stroke="none"></rect></g>
<g class="vf-clef" id="vf-8" font-family="Arial">
<text stroke="none" font-family="Bravura,Academico" font-size="30pt" x="20" y="100"></text></g>
<g class="vf-keysignature" id="vf-9" font-family="Arial"></g>
<g class="vf-timesignature" id="vf-10" font-family="Arial">
<text stroke="none" font-family="Bravura,Academico" font-size="30pt" x="61.84" y="80"></text>
<text stroke="none" font-family="Bravura,Academico" font-size="30pt" x="61.84" y="100"></text></g>
<g class="vf-tabnote" id="vf-11" font-family="Arial">
<rect x="92.12" y="169" width="10.67" height="6" fill="white" stroke="none"></rect>
<text stroke="none" font-family="Bravura,Academico" font-size="9pt" x="94.12" y="176.33">0</text>
<rect x="92.12" y="182" width="10.67" height="6" fill="white" stroke="none"></rect>
<text stroke="none" font-family="Bravura,Academico" font-size="9pt" x="94.12" y="189.22">1</text>
<rect x="92.12" y="195" width="10.67" height="6" fill="white" stroke="none"></rect>
<text stroke="none" font-family="Bravura,Academico" font-size="9pt" x="94.12" y="202.33">0</text>
<rect x="92.12" y="208" width="10.67" height="6" fill="white" stroke="none"></rect>
<text stroke="none" font-family="Bravura,Academico" font-size="9pt" x="94.12" y="215.25">2</text>
<rect x="92.12" y="221" width="10.67" height="6" fill="white" stroke="none"></rect>
<text stroke="none" font-family="Bravura,Academico" font-size="9pt" x="94.12" y="228.33">3</text></g>
<g class="vf-tabnote" id="vf-12" font-family="Arial">
<rect x="173.91" y="169" width="10.67" height="6" fill="white" stroke="none"></rect>
<text stroke="none" font-family="Bravura,Academico" font-size="9pt" x="175.91" y="176.33">0</text>
<rect x="173.91" y="182" width="10.67" height="6" fill="white" stroke="none"></rect>
<text stroke="none" font-family="Bravura,Academico" font-size="9pt" x="175.91" y="189.22">1</text>
<rect x="173.91" y="195" width="10.67" height="6" fill="white" stroke="none"></rect>
<text stroke="none" font-family="Bravura,Academico" font-size="9pt" x="175.91" y="202.25">2</text>
<rect x="173.91" y="208" width="10.67" height="6" fill="white" stroke="none"></rect>
<text stroke="none" font-family="Bravura,Academico" font-size="9pt" x="175.91" y="215.25">2</text>
<rect x="173.91" y="221" width="10.67" height="6" fill="white" stroke="none"></rect>
<text stroke="none" font-family="Bravura,Academico" font-size="9pt" x="175.91" y="228.33">0</text></g>
<g class="vf-stavebarline" id="vf-13" font-family="Arial">
<rect x="261.04" y="172" width="1" height="66" stroke="none"></rect></g>
<g class="vf-tabnote" id="vf-14" font-family="Arial">
<rect x="302.11" y="169" width="10.67" height="6" fill="white" stroke="none"></rect>
<text stroke="none" font-family="Bravura,Academico" font-size="9pt" x="304.11" y="176.33">3</text>
<rect x="302.11" y="182" width="10.67" height="6" fill="white" stroke="none"></rect>
<text stroke="none" font-family="Bravura,Academico" font-size="9pt" x="304.11" y="189.33">0</text>
<rect x="302.11" y="195" width="10.67" height="6" fill="white" stroke="none"></rect>
<text stroke="none" font-family="Bravura,Academico" font-size="9pt" x="304.11" y="202.33">0</text>
<rect x="302.11" y="208" width="10.67" height="6" fill="white" stroke="none"></rect>
<text stroke="none" font-family="Bravura,Academico" font-size="9pt" x="304.11" y="215.33">0</text>
<rect x="302.11" y="221" width="10.67" height="6" fill="white" stroke="none"></rect>
<text stroke="none" font-family="Bravura,Academico" font-size="9pt" x="304.11" y="228.25">2</text>
<rect x="302.11" y="234" width="10.67" height="6" fill="white" stroke="none"></rect>
<text stroke="none" font-family="Bravura,Academico" font-size="9pt" x="304.11" y="241.33">3</text></g>
<g class="vf-tabnote" id="vf-15" font-family="Arial">
<rect x="383.9" y="169" width="10.67" height="6" fill="white" stroke="none"></rect>
<text stroke="none" font-family="Bravura,Academico" font-size="9pt" x="385.9" y="176.25">2</text>
<rect x="383.9" y="182" width="10.67" height="6" fill="white" stroke="none"></rect>
<text stroke="none" font-family="Bravura,Academico" font-size="9pt" x="385.9" y="189.33">3</text>
<rect x="383.9" y="195" width="10.67" height="6" fill="white" stroke="none"></rect>
<text stroke="none" font-family="Bravura,Academico" font-size="9pt" x="385.9" y="202.25">2</text>
<rect x="383.9" y="208" width="10.67" height="6" fill="white" stroke="none"></rect>
<text stroke="none" font-family="Bravura,Academico" font-size="9pt" x="385.9" y="215.33">0</text></g>
<g class="vf-stavenote" id="vf-16" font-family="Arial">
<path stroke-width="2" fill="none" stroke="#444" d="M94.45 120L112.25 120"></path>
<g class="vf-stem" id="vf-17">
<path stroke-width="1.5" fill="none" d="M108.5 120L108.5 40"></path></g>
<g class="vf-notehead" id="vf-18">
<text stroke="none" font-family="Bravura,Academico" font-size="30pt" x="97.45" y="75"></text></g>
<g class="vf-notehead" id="vf-19">
<text stroke="none" font-family="Bravura,Academico" font-size="30pt" x="97.45" y="85"></text></g>
<g class="vf-notehead" id="vf-20">
<text stroke="none" font-family="Bravura,Academico" font-size="30pt" x="97.45" y="100"></text></g>
<g class="vf-notehead" id="vf-21">
<text stroke="none" font-family="Bravura,Academico" font-size="30pt" x="97.45" y="110"></text></g>
<g class="vf-notehead" id="vf-22">
<text stroke="none" font-family="Bravura,Academico" font-size="30pt" x="97.45" y="120"></text></g>
<rect x="97.45" y="40" width="11.8" height="85" opacity="0" pointer-events="auto"></rect></g>
<g class="vf-stavenote" id="vf-23" font-family="Arial">
<path stroke-width="2" fill="none" stroke="#444" d="M176.25 120L194.05 120"></path>
<path stroke-width="2" fill="none" stroke="#444" d="M176.25 130L194.05 130"></path>
<g class="vf-stem" id="vf-24">
<path stroke-width="1.5" fill="none" d="M190.3 130L190.3 40"></path></g>
<g class="vf-notehead" id="vf-25">
<text stroke="none" font-family="Bravura,Academico" font-size="30pt" x="179.25" y="75"></text></g>
<g class="vf-notehead" id="vf-26">
<text stroke="none" font-family="Bravura,Academico" font-size="30pt" x="179.25" y="85"></text></g>
<g class="vf-notehead" id="vf-27">
<text stroke="none" font-family="Bravura,Academico" font-size="30pt" x="179.25" y="95"></text></g>
<g class="vf-notehead" id="vf-28">
<text stroke="none" font-family="Bravura,Academico" font-size="30pt" x="179.25" y="110"></text></g>
<g class="vf-notehead" id="vf-29">
<text stroke="none" font-family="Bravura,Academico" font-size="30pt" x="179.25" y="130"></text></g>
<rect x="179.25" y="40" width="11.8" height="95" opacity="0" pointer-events="auto"></rect></g>
<g class="vf-stavebarline" id="vf-30" font-family="Arial">
<rect x="261.04" y="70" width="1" height="41" stroke="none"></rect></g>
<g class="vf-stavenote" id="vf-31" font-family="Arial">
<path stroke-width="2" fill="none" stroke="#444" d="M304.45 120L322.25 120"></path>
<path stroke-width="2" fill="none" stroke="#444" d="M304.45 130L322.25 130"></path>
<g class="vf-stem" id="vf-32">
<path stroke-width="1.5" fill="none" d="M318.5 135L318.5 30"></path></g>
<g class="vf-notehead" id="vf-33">
<text stroke="none" font-family="Bravura,Academico" font-size="30pt" x="307.45" y="65"></text></g>
<g class="vf-notehead" id="vf-34">
<text stroke="none" font-family="Bravura,Academico" font-size="30pt" x="307.45" y="90"></text></g>
<g class="vf-notehead" id="vf-35">
<text stroke="none" font-family="Bravura,Academico" font-size="30pt" x="307.45" y="100"></text></g>
<g class="vf-notehead" id="vf-36">
<text stroke="none" font-family="Bravura,Academico" font-size="30pt" x="307.45" y="115"></text></g>
<g class="vf-notehead" id="vf-37">
<text stroke="none" font-family="Bravura,Academico" font-size="30pt" x="307.45" y="125"></text></g>
<g class="vf-notehead" id="vf-38">
<text stroke="none" font-family="Bravura,Academico" font-size="30pt" x="307.45" y="135"></text></g>
<rect x="307.45" y="30" width="11.8" height="110" opacity="0" pointer-events="auto"></rect></g>
<g class="vf-stavenote" id="vf-39" font-family="Arial">
<g class="vf-stem" id="vf-40">
<path stroke-width="1.5" fill="none" d="M389.99 70L389.99 150"></path></g>
<g class="vf-notehead" id="vf-41">
<text stroke="none" font-family="Bravura,Academico" font-size="30pt" x="389.24" y="70"></text>
<text stroke="none" font-family="Bravura,Academico" font-size="30pt" x="376.28" y="70"></text></g>
<g class="vf-notehead" id="vf-42">
<text stroke="none" font-family="Bravura,Academico" font-size="30pt" x="389.24" y="80"></text></g>
<g class="vf-notehead" id="vf-43">
<text stroke="none" font-family="Bravura,Academico" font-size="30pt" x="389.24" y="95"></text></g>
<g class="vf-notehead" id="vf-44">
<text stroke="none" font-family="Bravura,Academico" font-size="30pt" x="389.24" y="115"></text></g>
<rect x="376.28" y="56" width="24.76" height="94" opacity="0" pointer-events="auto"></rect></g>
<text stroke="none" font-family="Arial" x="98.54" y="40">C</text>
<text stroke="none" font-family="Arial" x="250.3" y="40">Am</text>
<text stroke="none" font-family="Arial" x="449" y="40">G</text>
<text stroke="none" font-family="Arial" x="530.83" y="40">D</text>
<text stroke="none" font-size="30pt" x="10" y="64"></text>
<text stroke="none" font-size="30pt" x="10" y="244"></text>
<rect x="10" y="64" width="3" height="180" stroke="none"></rect>
<text stroke="none" font-family="Times" font-weight="italic" x="187.78" y="285">vexflow.com</text></svg>
