<svg xmlns="http://www.w3.org/2000/svg" stroke-width="1" stroke-dasharray="none" fill="currentColor" stroke="currentColor" font-family="Bravura,Academico" font-size="10pt" font-weight="normal" font-style="normal" width="600" height="270" viewBox="0 0 600 270" style="max-width:100%;height:auto">
<g class="vf-stave" font-family="Arial">
<path fill="none" d="M15 152.5L595 152.5"/>
<path fill="none" d="M15 165.5L595 165.5"/>
<path fill="none" d="M15 178.5L595 178.5"/>
<path fill="none" d="M15 191.5L595 191.5"/>
<path fill="none" d="M15 204.5L595 204.5"/>
<path fill="none" d="M15 217.5L595 217.5"/></g>
<g class="vf-stavebarline" font-family="Arial">
<rect x="15" y="152" width="1" height="66" stroke="none"/></g>
<g class="vf-stavebarline" font-family="Arial">
<rect x="595" y="152" width="1" height="66" stroke="none"/></g>
<g class="vf-clef" font-family="Arial">
<path d="M35.48 156.06L35.48 153.94L20.72 153.94L20.72 156.06L26.92 156.06L26.92 172.78L29.32 172.78L29.32 156.06M36.32 193.62L29.72 174.82L26.60 174.82L19.88 193.62L22.44 193.62L24.44 187.98L31.68 187.98L33.64 193.62M31.04 185.94L25.04 185.94L28.12 177.38M35.12 209.02C35.12 206.78 34.08 205.38 31.68 204.46C33.40 203.66 34.28 202.26 34.28 200.38C34.28 197.62 32.28 195.58 28.72 195.58L21.08 195.58L21.08 214.42L29.56 214.42C32.96 214.42 35.12 212.14 35.12 209.02M31.88 200.70C31.88 202.62 30.80 203.70 28.12 203.70L23.48 203.70L23.48 197.70L28.12 197.70C30.80 197.70 31.88 198.78 31.88 200.70M32.72 209.06C32.72 210.86 31.60 212.30 29.36 212.30L23.48 212.30L23.48 205.82L29.36 205.82C31.60 205.82 32.72 207.22 32.72 209.06" stroke="none"/></g>
<g class="vf-stave" font-family="Arial">
<path fill="none" d="M15 50.5L595 50.5"/>
<path fill="none" d="M15 60.5L595 60.5"/>
<path fill="none" d="M15 70.5L595 70.5"/>
<path fill="none" d="M15 80.5L595 80.5"/>
<path fill="none" d="M15 90.5L595 90.5"/></g>
<g class="vf-stavebarline" font-family="Arial">
<rect x="15" y="50" width="1" height="41" stroke="none"/></g>
<g class="vf-stavebarline" font-family="Arial">
<rect x="595" y="50" width="1" height="41" stroke="none"/></g>
<g class="vf-clef" font-family="Arial">
<path d="M35.04 63.40C34.96 62.92 35.04 62.88 35.28 62.64C39.60 58.60 42.88 53.52 42.88 47.40C42.88 43.92 41.92 40.48 40.28 38.08C39.68 37.20 38.64 36.08 38.20 36.08C37.64 36.08 36.40 37.12 35.60 38C32.64 41.28 31.68 46.28 31.68 50.44C31.68 52.76 31.96 55.36 32.24 57C32.32 57.48 32.36 57.56 31.88 57.96C26.12 62.72 20 68.44 20 76.52C20 83.48 24.76 90.08 34.56 90.08C35.48 90.08 36.52 90 37.32 89.84C37.76 89.76 37.84 89.72 37.92 90.20C38.40 92.88 39 96.36 39 98.24C39 104.16 35 104.88 32.64 104.88C30.48 104.88 29.44 104.24 29.44 103.72C29.44 103.44 29.80 103.32 30.72 103.04C31.96 102.68 33.40 101.60 33.40 99.28C33.40 97.08 32 95.20 29.56 95.20C26.88 95.20 25.28 97.32 25.28 99.80C25.28 102.40 26.84 106.32 32.88 106.32C35.56 106.32 40.76 105.12 40.76 98.32C40.76 96.04 40.04 92.24 39.60 89.76C39.52 89.28 39.56 89.32 40.12 89.08C44.16 87.48 46.84 84.08 46.84 79.56C46.84 74.44 43.08 69.92 37.20 69.92C36.16 69.92 36.16 69.92 36.04 69.20M38.80 42.28C40.12 42.28 41.20 43.36 41.20 45.56C41.20 50 37.40 53.60 34.24 56.36C33.96 56.60 33.80 56.56 33.72 56.04C33.56 55 33.48 53.64 33.48 52.36C33.48 46.12 36.36 42.28 38.80 42.28M34.44 69.52C34.56 70.28 34.56 70.24 33.84 70.48C30.32 71.68 28.04 74.84 28.04 78.24C28.04 81.84 29.92 84.40 32.64 85.32C32.96 85.44 33.44 85.56 33.72 85.56C34.04 85.56 34.20 85.36 34.20 85.12C34.20 84.84 33.88 84.72 33.60 84.60C31.92 83.88 30.72 82.16 30.72 80.32C30.72 78.04 32.28 76.32 34.72 75.64C35.36 75.48 35.44 75.52 35.52 75.96L37.52 87.88C37.60 88.32 37.56 88.32 36.96 88.44C36.32 88.56 35.52 88.64 34.72 88.64C27.72 88.64 23.20 84.76 23.20 79.20C23.20 76.84 23.60 73.68 26.92 69.92C29.32 67.24 31.16 65.76 33.04 64.24C33.44 63.92 33.52 63.96 33.60 64.40M37.20 75.88C37.12 75.40 37.16 75.28 37.64 75.32C40.88 75.60 43.56 78.32 43.56 81.84C43.56 84.36 42.04 86.40 39.80 87.52C39.32 87.76 39.24 87.76 39.16 87.28" stroke="none"/></g>
<g class="vf-keysignature" font-family="Arial"/>
<g class="vf-tabnote" font-family="Arial">
<rect x="53.5" y="201" width="10.67" height="6" stroke="none" style="fill:var(--sl-color-bg, white)"/>
<path d="M56.05 206.49C56.05 207.79 57.23 208.50 58.40 208.50C60.16 208.50 61.45 207.35 61.45 205.56C61.45 204.01 60.22 202.87 58.69 202.87C58.07 202.87 57.68 203.05 57.10 203.22L57.25 201.05C57.25 201.05 57.26 201.05 57.26 201.05C57.80 201.14 58.32 201.21 58.86 201.21C59.60 201.21 60.30 201.02 60.77 200.40C60.83 200.33 61.14 199.83 60.90 199.83C60.73 199.83 60.59 199.97 60.42 200.01C60.06 200.11 59.71 200.15 59.34 200.15C58.51 200.15 57.80 200 56.87 199.85L56.60 203.61C56.59 203.81 56.27 204 56.27 204.30C56.27 204.47 56.38 204.61 56.54 204.61C57.02 204.61 56.77 204.05 57.04 203.87C57.47 203.59 57.90 203.40 58.40 203.40C59.76 203.40 60.22 204.49 60.22 205.67C60.23 206.71 59.66 208.03 58.63 208.03C57.38 208.03 56.78 207.60 56.78 207.14C56.78 206.83 57.50 206.94 57.50 206.18C57.50 205.73 57.17 205.50 56.77 205.50C56.21 205.50 56.05 206.03 56.05 206.49" stroke="none"/></g>
<g class="vf-stavebarline" font-family="Arial">
<rect x="110.16" y="152" width="1" height="66" stroke="none"/></g>
<g class="vf-tabnote" font-family="Arial">
<rect x="133.74" y="201" width="10.67" height="6" stroke="none" style="fill:var(--sl-color-bg, white)"/>
<path d="M136.29 206.49C136.29 207.79 137.47 208.50 138.64 208.50C140.40 208.50 141.69 207.35 141.69 205.56C141.69 204.01 140.46 202.87 138.93 202.87C138.31 202.87 137.92 203.05 137.34 203.22L137.49 201.05C137.49 201.05 137.50 201.05 137.50 201.05C138.04 201.14 138.56 201.21 139.10 201.21C139.84 201.21 140.54 201.02 141.01 200.40C141.07 200.33 141.38 199.83 141.14 199.83C140.97 199.83 140.83 199.97 140.66 200.01C140.30 200.11 139.95 200.15 139.58 200.15C138.75 200.15 138.04 200 137.11 199.85L136.84 203.61C136.83 203.81 136.51 204 136.51 204.30C136.51 204.47 136.62 204.61 136.78 204.61C137.26 204.61 137.01 204.05 137.28 203.87C137.71 203.59 138.14 203.40 138.64 203.40C140 203.40 140.46 204.49 140.46 205.67C140.47 206.71 139.90 208.03 138.87 208.03C137.62 208.03 137.02 207.60 137.02 207.14C137.02 206.83 137.74 206.94 137.74 206.18C137.74 205.73 137.41 205.50 137.01 205.50C136.45 205.50 136.29 206.03 136.29 206.49" stroke="none"/></g>
<g class="vf-tabnote" font-family="Arial">
<rect x="172.23" y="201" width="10.67" height="6" stroke="none" style="fill:var(--sl-color-bg, white)"/>
<path d="M177.52 208.50C177.93 208.50 178.14 208.21 178.18 207.81C178.18 206.52 178.36 205.28 178.69 204.08C179.08 202.71 179.74 201.48 180.41 200.23L180.41 199.99L176.46 199.99C176.08 199.99 175.59 199.86 175.43 199.85C175.43 199.85 175.42 199.85 175.41 199.85C175.41 199.85 175.39 199.85 175.39 199.85L174.94 202.67L175.35 202.67L175.61 201.68C175.72 201.20 175.89 200.95 176.22 200.95L179.55 200.95C177.91 204.03 176.86 206.49 176.86 207.65C176.86 208.27 177.06 208.50 177.52 208.50" stroke="none"/></g>
<g class="vf-stavebarline" font-family="Arial">
<rect x="216.04" y="152" width="1" height="66" stroke="none"/></g>
<g class="vf-tabnote" font-family="Arial">
<rect x="239.63" y="201" width="10.67" height="6" stroke="none" style="fill:var(--sl-color-bg, white)"/>
<path d="M242.18 206.49C242.18 207.79 243.36 208.50 244.53 208.50C246.29 208.50 247.58 207.35 247.58 205.56C247.58 204.01 246.35 202.87 244.82 202.87C244.20 202.87 243.81 203.05 243.23 203.22L243.38 201.05C243.38 201.05 243.39 201.05 243.39 201.05C243.93 201.14 244.45 201.21 244.99 201.21C245.73 201.21 246.43 201.02 246.90 200.40C246.96 200.33 247.27 199.83 247.03 199.83C246.86 199.83 246.72 199.97 246.55 200.01C246.19 200.11 245.84 200.15 245.47 200.15C244.64 200.15 243.93 200 243 199.85L242.73 203.61C242.72 203.81 242.40 204 242.40 204.30C242.40 204.47 242.51 204.61 242.67 204.61C243.15 204.61 242.90 204.05 243.17 203.87C243.60 203.59 244.03 203.40 244.53 203.40C245.89 203.40 246.35 204.49 246.35 205.67C246.36 206.71 245.79 208.03 244.76 208.03C243.51 208.03 242.91 207.60 242.91 207.14C242.91 206.83 243.63 206.94 243.63 206.18C243.63 205.73 243.30 205.50 242.90 205.50C242.34 205.50 242.18 206.03 242.18 206.49" stroke="none"/></g>
<g class="vf-tabnote" font-family="Arial">
<rect x="272.95" y="201" width="10.67" height="6" stroke="none" style="fill:var(--sl-color-bg, white)"/>
<path d="M278.24 208.50C278.65 208.50 278.86 208.21 278.90 207.81C278.90 206.52 279.08 205.28 279.41 204.08C279.80 202.71 280.46 201.48 281.13 200.23L281.13 199.99L277.18 199.99C276.80 199.99 276.31 199.86 276.15 199.85C276.15 199.85 276.14 199.85 276.13 199.85C276.13 199.85 276.11 199.85 276.11 199.85L275.66 202.67L276.07 202.67L276.33 201.68C276.44 201.20 276.61 200.95 276.94 200.95L280.27 200.95C278.63 204.03 277.58 206.49 277.58 207.65C277.58 208.27 277.78 208.50 278.24 208.50" stroke="none"/></g>
<g class="vf-tabnote" font-family="Arial">
<rect x="306.28" y="188" width="10.67" height="6" stroke="none" style="fill:var(--sl-color-bg, white)"/>
<path d="M308.83 193.49C308.83 194.79 310.01 195.50 311.18 195.50C312.94 195.50 314.23 194.35 314.23 192.56C314.23 191.01 313 189.87 311.47 189.87C310.85 189.87 310.46 190.05 309.88 190.22L310.03 188.05C310.03 188.05 310.04 188.05 310.04 188.05C310.58 188.14 311.10 188.21 311.64 188.21C312.38 188.21 313.08 188.02 313.55 187.40C313.61 187.33 313.92 186.83 313.68 186.83C313.51 186.83 313.37 186.97 313.20 187.01C312.84 187.11 312.49 187.15 312.12 187.15C311.29 187.15 310.58 187 309.65 186.85L309.38 190.61C309.37 190.81 309.05 191 309.05 191.30C309.05 191.47 309.16 191.61 309.32 191.61C309.80 191.61 309.55 191.05 309.82 190.87C310.25 190.59 310.68 190.40 311.18 190.40C312.54 190.40 313 191.49 313 192.67C313.01 193.71 312.44 195.03 311.41 195.03C310.16 195.03 309.56 194.60 309.56 194.14C309.56 193.83 310.28 193.94 310.28 193.18C310.28 192.73 309.95 192.50 309.55 192.50C308.99 192.50 308.83 193.03 308.83 193.49" stroke="none"/></g>
<g class="vf-tabnote" font-family="Arial">
<rect x="339.6" y="188" width="10.67" height="6" stroke="none" style="fill:var(--sl-color-bg, white)"/>
<path d="M344.89 195.50C345.30 195.50 345.51 195.21 345.55 194.81C345.55 193.52 345.73 192.28 346.06 191.08C346.45 189.71 347.11 188.48 347.78 187.23L347.78 186.99L343.83 186.99C343.45 186.99 342.96 186.86 342.80 186.85C342.80 186.85 342.79 186.85 342.78 186.85C342.78 186.85 342.76 186.85 342.76 186.85L342.31 189.67L342.72 189.67L342.98 188.68C343.09 188.20 343.26 187.95 343.59 187.95L346.92 187.95C345.28 191.03 344.23 193.49 344.23 194.65C344.23 195.27 344.43 195.50 344.89 195.50" stroke="none"/></g>
<g class="vf-stavebarline" font-family="Arial">
<rect x="378.26" y="152" width="1" height="66" stroke="none"/></g>
<g class="vf-tabnote" font-family="Arial">
<rect x="401.85" y="201" width="10.67" height="6" stroke="none" style="fill:var(--sl-color-bg, white)"/>
<path d="M404.40 206.49C404.40 207.79 405.58 208.50 406.75 208.50C408.51 208.50 409.80 207.35 409.80 205.56C409.80 204.01 408.57 202.87 407.04 202.87C406.42 202.87 406.03 203.05 405.45 203.22L405.60 201.05C405.60 201.05 405.61 201.05 405.61 201.05C406.15 201.14 406.67 201.21 407.21 201.21C407.95 201.21 408.65 201.02 409.12 200.40C409.18 200.33 409.49 199.83 409.25 199.83C409.08 199.83 408.94 199.97 408.77 200.01C408.41 200.11 408.06 200.15 407.69 200.15C406.86 200.15 406.15 200 405.22 199.85L404.95 203.61C404.94 203.81 404.62 204 404.62 204.30C404.62 204.47 404.73 204.61 404.89 204.61C405.37 204.61 405.12 204.05 405.39 203.87C405.82 203.59 406.25 203.40 406.75 203.40C408.11 203.40 408.57 204.49 408.57 205.67C408.58 206.71 408.01 208.03 406.98 208.03C405.73 208.03 405.13 207.60 405.13 207.14C405.13 206.83 405.85 206.94 405.85 206.18C405.85 205.73 405.52 205.50 405.12 205.50C404.56 205.50 404.40 206.03 404.40 206.49" stroke="none"/></g>
<g class="vf-tabnote" font-family="Arial">
<rect x="432.86" y="201" width="10.67" height="6" stroke="none" style="fill:var(--sl-color-bg, white)"/>
<path d="M438.15 208.50C438.56 208.50 438.77 208.21 438.81 207.81C438.81 206.52 438.99 205.28 439.32 204.08C439.71 202.71 440.37 201.48 441.04 200.23L441.04 199.99L437.09 199.99C436.71 199.99 436.22 199.86 436.06 199.85C436.06 199.85 436.05 199.85 436.04 199.85C436.04 199.85 436.02 199.85 436.02 199.85L435.57 202.67L435.98 202.67L436.24 201.68C436.35 201.20 436.52 200.95 436.85 200.95L440.18 200.95C438.54 204.03 437.49 206.49 437.49 207.65C437.49 208.27 437.69 208.50 438.15 208.50" stroke="none"/></g>
<g class="vf-tabnote" font-family="Arial">
<rect x="463.87" y="188" width="10.67" height="6" stroke="none" style="fill:var(--sl-color-bg, white)"/>
<path d="M466.42 193.49C466.42 194.79 467.60 195.50 468.77 195.50C470.53 195.50 471.82 194.35 471.82 192.56C471.82 191.01 470.59 189.87 469.06 189.87C468.44 189.87 468.05 190.05 467.47 190.22L467.62 188.05C467.62 188.05 467.63 188.05 467.63 188.05C468.17 188.14 468.69 188.21 469.23 188.21C469.97 188.21 470.67 188.02 471.14 187.40C471.20 187.33 471.51 186.83 471.27 186.83C471.10 186.83 470.96 186.97 470.79 187.01C470.43 187.11 470.08 187.15 469.71 187.15C468.88 187.15 468.17 187 467.24 186.85L466.97 190.61C466.96 190.81 466.64 191 466.64 191.30C466.64 191.47 466.75 191.61 466.91 191.61C467.39 191.61 467.14 191.05 467.41 190.87C467.84 190.59 468.27 190.40 468.77 190.40C470.13 190.40 470.59 191.49 470.59 192.67C470.60 193.71 470.03 195.03 469 195.03C467.75 195.03 467.15 194.60 467.15 194.14C467.15 193.83 467.87 193.94 467.87 193.18C467.87 192.73 467.54 192.50 467.14 192.50C466.58 192.50 466.42 193.03 466.42 193.49" stroke="none"/></g>
<g class="vf-tabnote" font-family="Arial">
<rect x="494.88" y="188" width="10.67" height="6" stroke="none" style="fill:var(--sl-color-bg, white)"/>
<path d="M500.17 195.50C500.58 195.50 500.79 195.21 500.83 194.81C500.83 193.52 501.01 192.28 501.34 191.08C501.73 189.71 502.39 188.48 503.06 187.23L503.06 186.99L499.11 186.99C498.73 186.99 498.24 186.86 498.08 186.85C498.08 186.85 498.07 186.85 498.06 186.85C498.06 186.85 498.04 186.85 498.04 186.85L497.59 189.67L498 189.67L498.26 188.68C498.37 188.20 498.54 187.95 498.87 187.95L502.20 187.95C500.56 191.03 499.51 193.49 499.51 194.65C499.51 195.27 499.71 195.50 500.17 195.50" stroke="none"/></g>
<g class="vf-tabnote" font-family="Arial">
<rect x="525.89" y="175" width="10.67" height="6" stroke="none" style="fill:var(--sl-color-bg, white)"/>
<path d="M528.44 180.49C528.44 181.79 529.62 182.50 530.79 182.50C532.55 182.50 533.84 181.35 533.84 179.56C533.84 178.01 532.61 176.87 531.08 176.87C530.46 176.87 530.07 177.05 529.49 177.22L529.64 175.05C529.64 175.05 529.65 175.05 529.65 175.05C530.19 175.14 530.71 175.21 531.25 175.21C531.99 175.21 532.69 175.02 533.16 174.40C533.22 174.33 533.53 173.83 533.29 173.83C533.12 173.83 532.98 173.97 532.81 174.01C532.45 174.11 532.10 174.15 531.73 174.15C530.90 174.15 530.19 174 529.26 173.85L528.99 177.61C528.98 177.81 528.66 178 528.66 178.30C528.66 178.47 528.77 178.61 528.93 178.61C529.41 178.61 529.16 178.05 529.43 177.87C529.86 177.59 530.29 177.40 530.79 177.40C532.15 177.40 532.61 178.49 532.61 179.67C532.62 180.71 532.05 182.03 531.02 182.03C529.77 182.03 529.17 181.60 529.17 181.14C529.17 180.83 529.89 180.94 529.89 180.18C529.89 179.73 529.56 179.50 529.16 179.50C528.60 179.50 528.44 180.03 528.44 180.49" stroke="none"/></g>
<g class="vf-tabnote" font-family="Arial">
<rect x="559.22" y="175" width="10.67" height="6" stroke="none" style="fill:var(--sl-color-bg, white)"/>
<path d="M564.51 182.50C564.92 182.50 565.13 182.21 565.17 181.81C565.17 180.52 565.35 179.28 565.68 178.08C566.07 176.71 566.73 175.48 567.40 174.23L567.40 173.99L563.45 173.99C563.07 173.99 562.58 173.86 562.42 173.85C562.42 173.85 562.41 173.85 562.40 173.85C562.40 173.85 562.38 173.85 562.38 173.85L561.93 176.67L562.34 176.67L562.60 175.68C562.71 175.20 562.88 174.95 563.21 174.95L566.54 174.95C564.90 178.03 563.85 180.49 563.85 181.65C563.85 182.27 564.05 182.50 564.51 182.50" stroke="none"/></g>
<g class="vf-stavenote" font-family="Arial">
<g class="vf-notehead">
<path d="M67.48 90C62.16 90 58.84 92.20 58.84 94.92C58.84 97.60 61.12 100 67.08 100C73.64 100 75.72 97.72 75.72 94.92C75.72 92.08 71.20 90 67.48 90M63.28 92.48C63.72 91.08 65.20 90.88 66.44 90.88C69.20 90.88 71.40 93.84 71.40 96.24C71.40 97.48 70.88 98.60 69.56 98.92C69.16 99.04 68.72 99.08 68.32 99.08C66.88 99.08 65.40 98.12 64.56 97C63.76 96.08 63.16 94.72 63.16 93.44C63.16 93.12 63.20 92.80 63.28 92.48" stroke="none"/></g>
</g>
<g class="vf-stavebarline" font-family="Arial">
<rect x="110.16" y="50" width="1" height="41" stroke="none"/></g>
<g class="vf-stavenote" font-family="Arial">
<g class="vf-stem">
<path stroke-width="1.5" fill="none" d="M150.13 95L150.13 60"/></g>
<g class="vf-notehead">
<path d="M142.96 100C149.56 100 150.88 94.64 150.88 93.32C150.88 91.28 149.24 90 146.92 90C140.96 90 139.08 94.60 139.08 96.68C139.08 98.80 140.76 100 142.96 100M142.08 98.48C141.24 98.48 140.76 98.04 140.48 97.56C140.36 97.32 140.24 97.04 140.24 96.76C140.24 94.80 146.04 91.64 147.92 91.64C148.68 91.64 149.12 92 149.40 92.48C149.52 92.72 149.64 92.96 149.64 93.24C149.64 94.96 144 98.48 142.08 98.48" stroke="none"/></g>
</g>
<g class="vf-stavenote" font-family="Arial">
<g class="vf-stem">
<path stroke-width="1.5" fill="none" d="M188.61 90L188.61 55"/></g>
<g class="vf-notehead">
<path d="M181.44 95C188.04 95 189.36 89.64 189.36 88.32C189.36 86.28 187.72 85 185.40 85C179.44 85 177.56 89.60 177.56 91.68C177.56 93.80 179.24 95 181.44 95M180.56 93.48C179.72 93.48 179.24 93.04 178.96 92.56C178.84 92.32 178.72 92.04 178.72 91.76C178.72 89.80 184.52 86.64 186.40 86.64C187.16 86.64 187.60 87 187.88 87.48C188 87.72 188.12 87.96 188.12 88.24C188.12 89.96 182.48 93.48 180.56 93.48" stroke="none"/></g>
</g>
<g class="vf-stavebarline" font-family="Arial">
<rect x="216.04" y="50" width="1" height="41" stroke="none"/></g>
<g class="vf-stavenote" font-family="Arial">
<g class="vf-stem">
<path stroke-width="1.5" fill="none" d="M256.02 95L256.02 60"/></g>
<g class="vf-notehead">
<path d="M248.85 100C252.41 100 256.77 96.72 256.77 93.32C256.77 91.28 255.17 90 252.89 90C248.49 90 244.97 93.24 244.97 96.68C244.97 98.76 246.69 100 248.85 100" stroke="none"/></g>
</g>
<g class="vf-stavenote" font-family="Arial">
<g class="vf-stem">
<path stroke-width="1.5" fill="none" d="M289.34 90L289.34 55"/></g>
<g class="vf-notehead">
<path d="M282.17 95C285.73 95 290.09 91.72 290.09 88.32C290.09 86.28 288.49 85 286.21 85C281.81 85 278.29 88.24 278.29 91.68C278.29 93.76 280.01 95 282.17 95" stroke="none"/></g>
</g>
<g class="vf-stavenote" font-family="Arial">
<g class="vf-stem">
<path stroke-width="1.5" fill="none" d="M322.66 80L322.66 45"/></g>
<g class="vf-notehead">
<path d="M315.49 85C319.05 85 323.41 81.72 323.41 78.32C323.41 76.28 321.81 75 319.53 75C315.13 75 311.61 78.24 311.61 81.68C311.61 83.76 313.33 85 315.49 85" stroke="none"/></g>
</g>
<g class="vf-stavenote" font-family="Arial">
<g class="vf-stem">
<path stroke-width="1.5" fill="none" d="M355.99 75L355.99 40"/></g>
<g class="vf-notehead">
<path d="M348.82 80C352.38 80 356.74 76.72 356.74 73.32C356.74 71.28 355.14 70 352.86 70C348.46 70 344.94 73.24 344.94 76.68C344.94 78.76 346.66 80 348.82 80" stroke="none"/></g>
</g>
<g class="vf-stavebarline" font-family="Arial">
<rect x="378.26" y="50" width="1" height="41" stroke="none"/></g>
<g class="vf-stavenote" font-family="Arial">
<g class="vf-notehead">
<path d="M411.07 100C414.63 100 418.99 96.72 418.99 93.32C418.99 91.28 417.39 90 415.11 90C410.71 90 407.19 93.24 407.19 96.68C407.19 98.76 408.91 100 411.07 100" stroke="none"/></g>
</g>
<g class="vf-stavenote" font-family="Arial">
<g class="vf-notehead">
<path d="M442.08 95C445.64 95 450 91.72 450 88.32C450 86.28 448.40 85 446.12 85C441.72 85 438.20 88.24 438.20 91.68C438.20 93.76 439.92 95 442.08 95" stroke="none"/></g>
</g>
<g class="vf-stavenote" font-family="Arial">
<g class="vf-notehead">
<path d="M473.09 85C476.65 85 481.01 81.72 481.01 78.32C481.01 76.28 479.41 75 477.13 75C472.73 75 469.21 78.24 469.21 81.68C469.21 83.76 470.93 85 473.09 85" stroke="none"/></g>
</g>
<g class="vf-stavenote" font-family="Arial">
<g class="vf-notehead">
<path d="M504.10 80C507.66 80 512.02 76.72 512.02 73.32C512.02 71.28 510.42 70 508.14 70C503.74 70 500.22 73.24 500.22 76.68C500.22 78.76 501.94 80 504.10 80" stroke="none"/></g>
</g>
<g class="vf-stavenote" font-family="Arial">
<g class="vf-stem">
<path stroke-width="1.5" fill="none" d="M531.98 65L531.98 100"/></g>
<g class="vf-notehead">
<path d="M535.11 70C538.67 70 543.03 66.72 543.03 63.32C543.03 61.28 541.43 60 539.15 60C534.75 60 531.23 63.24 531.23 66.68C531.23 68.76 532.95 70 535.11 70" stroke="none"/></g>
</g>
<g class="vf-stavenote" font-family="Arial">
<g class="vf-stem">
<path stroke-width="1.5" fill="none" d="M565.3 60L565.3 95"/></g>
<g class="vf-notehead">
<path d="M568.43 65C571.99 65 576.35 61.72 576.35 58.32C576.35 56.28 574.75 55 572.47 55C568.07 55 564.55 58.24 564.55 61.68C564.55 63.76 566.27 65 568.43 65" stroke="none"/></g>
</g>
<g class="vf-beam" font-family="Arial">
<g class="vf-stem">
<path stroke-width="1.5" fill="none" d="M418.24 95L418.24 58.08"/></g>
<g class="vf-stem">
<path stroke-width="1.5" fill="none" d="M449.25 90L449.25 55.75"/></g>
<path stroke="none" d="M417.49 57.38L417.49 62.38L449.5 60.06L449.5 55.06Z"/></g>
<g class="vf-beam" font-family="Arial">
<g class="vf-stem">
<path stroke-width="1.5" fill="none" d="M480.26 80L480.26 43.08"/></g>
<g class="vf-stem">
<path stroke-width="1.5" fill="none" d="M511.27 75L511.27 40.75"/></g>
<path stroke="none" d="M479.51 42.38L479.51 47.38L511.52 45.06L511.52 40.06Z"/></g>
<path d="M10 44L15 44C21.40 42.80 27.12 39.84 28.72 33.16C28.76 33 28.76 32.88 28.76 32.76C28.76 32.44 28.64 32.28 28.44 32.20C28.08 32.20 27.64 32.48 27.44 32.76C27.04 33.20 22 38.48 14.36 39.04L10.32 39.04C10.08 39.04 10 39.08 10 39.32" stroke="none"/>
<path d="M10 228.68C10 228.92 10.08 228.96 10.32 228.96L14.36 228.96C22 229.52 27.04 234.80 27.44 235.24C27.64 235.52 28.08 235.80 28.44 235.80C28.64 235.72 28.76 235.56 28.76 235.24C28.76 235.12 28.76 235 28.72 234.84C27.12 228.16 21.40 225.20 15 224L10 224" stroke="none"/>
<rect x="10" y="44" width="3" height="180" stroke="none"/>
<text stroke="none" font-family="Times" font-weight="italic" x="187.78" y="265">vexflow.com</text></svg>
