<svg pointer-events="none" stroke-width="1" stroke-dasharray="none" fill="black" stroke="black" shadowColor="black" font-family="Bravura,Academico" font-size="10pt" font-weight="normal" font-style="normal" width="600" height="180" viewBox="0 0 600 180">
<g class="vf-stave" id="vf-1" font-family="Arial">
<path fill="none" d="M15 62.5L595 62.5"></path>
<path fill="none" d="M15 75.5L595 75.5"></path>
<path fill="none" d="M15 88.5L595 88.5"></path>
<path fill="none" d="M15 101.5L595 101.5"></path>
<path fill="none" d="M15 114.5L595 114.5"></path>
<path fill="none" d="M15 127.5L595 127.5"></path></g>
<g class="vf-stavebarline" id="vf-2" font-family="Arial">
<rect x="15" y="62" width="1" height="66" stroke="none"></rect></g>
<g class="vf-stavebarline" id="vf-3" font-family="Arial">
<rect x="595" y="62" width="1" height="66" stroke="none"></rect></g>
<g class="vf-clef" id="vf-4" font-family="Arial">
<text stroke="none" font-family="Bravura,Academico" font-size="30pt" x="20" y="94.5"></text></g>
<g class="vf-tabnote" id="vf-5" font-family="Arial">
<rect x="49.78" y="98" width="17.34" height="6" fill="white" stroke="none"></rect>
<text stroke="none" font-family="Bravura,Academico" font-size="9pt" x="51.78" y="105.25">12</text>
<g class="vf-annotation" id="vf-6" font-family="Bravura,Academico" font-size="9pt">
<text stroke="none" font-size="10pt" x="60.67" y="144.33">T</text></g></g>
<g class="vf-tabnote" id="vf-7" font-family="Arial">
<rect x="183.08" y="98" width="10.67" height="6" fill="white" stroke="none"></rect>
<text stroke="none" font-family="Bravura,Academico" font-size="9pt" x="185.08" y="105.33">7</text></g>
<g class="vf-tabnote" id="vf-8" font-family="Arial">
<rect x="313.05" y="98" width="10.67" height="6" fill="white" stroke="none"></rect>
<text stroke="none" font-family="Bravura,Academico" font-size="9pt" x="315.05" y="105.33">5</text></g>
<g class="vf-tabnote" id="vf-9" font-family="Arial">
<rect x="443.02" y="98" width="10.67" height="6" fill="white" stroke="none"></rect>
<text stroke="none" font-family="Bravura,Academico" font-size="9pt" x="445.02" y="105.33">7</text></g>
<g class="vf-stavetie" id="vf-10" font-family="Arial">
<path stroke="none" d="M67.12 98Q125.1 89,183.08 98Q125.1 87,67.12 98Z"></path></g>
<text stroke="none" x="120.65" y="48">P</text>
<g class="vf-stavetie" id="vf-11">
<path stroke="none" d="M193.75 98Q253.4 89,313.05 98Q253.4 87,193.75 98Z"></path></g>
<text stroke="none" x="248.96" y="48">P</text>
<g class="vf-stavetie" id="vf-12">
<path stroke="none" d="M323.72 98Q383.37 89,443.02 98Q383.37 87,323.72 98Z"></path></g>
<text stroke="none" x="377.82" y="48">H</text>
<text stroke="none" font-family="Times" font-weight="italic" x="262.59" y="175">vexflow.com</text></svg>
