<svg pointer-events="none" stroke-width="1" stroke-dasharray="none" fill="black" stroke="black" shadowColor="black" font-family="Bravura,Academico" font-size="10pt" font-weight="normal" font-style="normal" width="600" height="270" viewBox="0 0 600 270">
<g class="vf-stave" id="vf-1" font-family="Arial">
<path fill="none" d="M15 152.5L595 152.5"></path>
<path fill="none" d="M15 165.5L595 165.5"></path>
<path fill="none" d="M15 178.5L595 178.5"></path>
<path fill="none" d="M15 191.5L595 191.5"></path>
<path fill="none" d="M15 204.5L595 204.5"></path>
<path fill="none" d="M15 217.5L595 217.5"></path></g>
<g class="vf-stavebarline" id="vf-2" font-family="Arial">
<rect x="15" y="152" width="1" height="66" stroke="none"></rect></g>
<g class="vf-stavebarline" id="vf-3" font-family="Arial">
<rect x="595" y="152" width="1" height="66" stroke="none"></rect></g>
<g class="vf-clef" id="vf-4" font-family="Arial">
<text stroke="none" font-family="Bravura,Academico" font-size="30pt" x="20" y="184.5"></text></g>
<g class="vf-stave" id="vf-5" font-family="Arial">
<path fill="none" d="M15 50.5L595 50.5"></path>
<path fill="none" d="M15 60.5L595 60.5"></path>
<path fill="none" d="M15 70.5L595 70.5"></path>
<path fill="none" d="M15 80.5L595 80.5"></path>
<path fill="none" d="M15 90.5L595 90.5"></path></g>
<g class="vf-stavebarline" id="vf-6" font-family="Arial">
<rect x="15" y="50" width="1" height="41" stroke="none"></rect></g>
<g class="vf-stavebarline" id="vf-7" font-family="Arial">
<rect x="595" y="50" width="1" height="41" stroke="none"></rect></g>
<g class="vf-clef" id="vf-8" font-family="Arial">
<text stroke="none" font-family="Bravura,Academico" font-size="30pt" x="20" y="80"></text></g>
<g class="vf-keysignature" id="vf-9" font-family="Arial"></g>
<g class="vf-tabnote" id="vf-10" font-family="Arial">
<rect x="53.5" y="175" width="10.67" height="6" fill="white" stroke="none"></rect>
<text stroke="none" font-family="Bravura,Academico" font-size="9pt" x="55.5" y="182.33">5</text></g>
<g class="vf-tabnote" id="vf-11" font-family="Arial">
<rect x="106.47" y="175" width="10.67" height="6" fill="white" stroke="none"></rect>
<text stroke="none" font-family="Bravura,Academico" font-size="9pt" x="108.47" y="182.33">7</text></g>
<g class="vf-tabnote" id="vf-12" font-family="Arial">
<rect x="159.44" y="175" width="10.67" height="6" fill="white" stroke="none"></rect>
<text stroke="none" font-family="Bravura,Academico" font-size="9pt" x="161.44" y="182.33">9</text></g>
<g class="vf-tabnote" id="vf-13" font-family="Arial">
<rect x="212.4" y="162" width="10.67" height="6" fill="white" stroke="none"></rect>
<text stroke="none" font-family="Bravura,Academico" font-size="9pt" x="214.4" y="169.33">5</text></g>
<g class="vf-tabnote" id="vf-14" font-family="Arial">
<rect x="265.37" y="162" width="10.67" height="6" fill="white" stroke="none"></rect>
<text stroke="none" font-family="Bravura,Academico" font-size="9pt" x="267.37" y="169.33">7</text></g>
<g class="vf-stavebarline" id="vf-15" font-family="Arial">
<rect x="376.64" y="152" width="1" height="66" stroke="none"></rect></g>
<g class="vf-tabnote" id="vf-16" font-family="Arial">
<rect x="416.46" y="149" width="10.67" height="6" fill="white" stroke="none"></rect>
<text stroke="none" font-family="Bravura,Academico" font-size="9pt" x="418.46" y="156.33">5</text></g>
<g class="vf-tabnote" id="vf-17" font-family="Arial">
<rect x="478.9" y="149" width="10.67" height="6" fill="white" stroke="none"></rect>
<text stroke="none" font-family="Bravura,Academico" font-size="9pt" x="480.9" y="156.33">8</text></g>
<g class="vf-tabnote" id="vf-18" font-family="Arial">
<rect x="541.33" y="149" width="10.67" height="6" fill="white" stroke="none"></rect>
<text stroke="none" font-family="Bravura,Academico" font-size="9pt" x="543.33" y="156.33">5</text></g>
<g class="vf-stavenote" id="vf-19" font-family="Arial">
<g class="vf-notehead" id="vf-20">
<text stroke="none" font-family="Bravura,Academico" font-size="30pt" x="58.84" y="65"></text></g>
<rect x="58.84" y="60" width="11.8" height="39.44" opacity="0" pointer-events="auto"></rect></g>
<g class="vf-stavenote" id="vf-21" font-family="Arial">
<g class="vf-notehead" id="vf-22">
<text stroke="none" font-family="Bravura,Academico" font-size="30pt" x="111.81" y="60"></text></g>
<rect x="111.81" y="55" width="11.8" height="39.44" opacity="0" pointer-events="auto"></rect></g>
<g class="vf-stavenote" id="vf-23" font-family="Arial">
<g class="vf-notehead" id="vf-24">
<text stroke="none" font-family="Bravura,Academico" font-size="30pt" x="164.77" y="55"></text></g>
<rect x="164.77" y="50" width="11.8" height="39.44" opacity="0" pointer-events="auto"></rect></g>
<g class="vf-stavenote" id="vf-25" font-family="Arial">
<g class="vf-notehead" id="vf-26">
<text stroke="none" font-family="Bravura,Academico" font-size="30pt" x="217.74" y="55"></text></g>
<rect x="217.74" y="50" width="11.8" height="39.44" opacity="0" pointer-events="auto"></rect></g>
<g class="vf-stavenote" id="vf-27" font-family="Arial">
<g class="vf-stem" id="vf-28">
<path stroke-width="1.5" fill="none" d="M271.45 50L271.45 82"></path></g>
<g class="vf-notehead" id="vf-29">
<text stroke="none" font-family="Bravura,Academico" font-size="30pt" x="270.7" y="50"></text>
<text stroke="none" font-family="Bravura,Academico" font-size="30pt" x="257.74" y="50"></text></g>
<g class="vf-flag" id="vf-30">
<text stroke="none" font-family="Bravura,Academico" font-size="30pt" x="270.7" y="84.44"></text></g>
<rect x="257.74" y="36" width="25.2" height="49" opacity="0" pointer-events="auto"></rect></g>
<g class="vf-stavenote" id="vf-31" font-family="Arial">
<g class="vf-notehead" id="vf-32">
<text stroke="none" font-family="Bravura,Academico" font-size="30pt" x="323.67" y="70"></text></g>
<rect x="323.67" y="63.04" width="10" height="17" opacity="0" pointer-events="auto"></rect></g>
<g class="vf-stavebarline" id="vf-33" font-family="Arial">
<rect x="376.64" y="50" width="1" height="41" stroke="none"></rect></g>
<g class="vf-stavenote" id="vf-34" font-family="Arial">
<path stroke-width="2" fill="none" stroke="#444" d="M418.8 40L436.6 40"></path>
<g class="vf-stem" id="vf-35">
<path stroke-width="1.5" fill="none" d="M422.55 40L422.55 75"></path></g>
<g class="vf-notehead" id="vf-36">
<text stroke="none" font-family="Bravura,Academico" font-size="30pt" x="421.8" y="40"></text></g>
<rect x="421.8" y="35" width="11.8" height="40" opacity="0" pointer-events="auto"></rect></g>
<g class="vf-stavenote" id="vf-37" font-family="Arial">
<path stroke-width="2" fill="none" stroke="#444" d="M481.23 40L499.03 40"></path>
<path stroke-width="2" fill="none" stroke="#444" d="M481.23 30L499.03 30"></path>
<g class="vf-stem" id="vf-38">
<path stroke-width="1.5" fill="none" d="M484.98 30L484.98 70"></path></g>
<g class="vf-notehead" id="vf-39">
<text stroke="none" font-family="Bravura,Academico" font-size="30pt" x="484.23" y="30"></text></g>
<rect x="484.23" y="25" width="11.8" height="45" opacity="0" pointer-events="auto"></rect></g>
<g class="vf-stavenote" id="vf-40" font-family="Arial">
<path stroke-width="2" fill="none" stroke="#444" d="M543.67 40L561.47 40"></path>
<g class="vf-stem" id="vf-41">
<path stroke-width="1.5" fill="none" d="M547.42 40L547.42 75"></path></g>
<g class="vf-notehead" id="vf-42">
<text stroke="none" font-family="Bravura,Academico" font-size="30pt" x="546.67" y="40"></text></g>
<rect x="546.67" y="35" width="11.8" height="40" opacity="0" pointer-events="auto"></rect></g>
<g class="vf-beam" id="vf-43" font-family="Arial">
<g class="vf-stem" id="vf-44">
<path stroke-width="1.5" fill="none" d="M59.59 65L59.59 99.25"></path></g>
<g class="vf-stem" id="vf-45">
<path stroke-width="1.5" fill="none" d="M112.56 60L112.56 96.6"></path></g>
<path stroke="none" d="M58.84 100.04L58.84 95.04L112.81 92.39L112.81 97.39Z"></path></g>
<g class="vf-beam" id="vf-46" font-family="Arial">
<g class="vf-stem" id="vf-47">
<path stroke-width="1.5" fill="none" d="M165.52 55L165.52 89.25"></path></g>
<g class="vf-stem" id="vf-48">
<path stroke-width="1.5" fill="none" d="M218.49 55L218.49 89.25"></path></g>
<path stroke="none" d="M164.77 90L164.77 85L218.74 85L218.74 90Z"></path></g>
<text stroke="none" font-size="30pt" x="10" y="44"></text>
<text stroke="none" font-size="30pt" x="10" y="224"></text>
<rect x="10" y="44" width="3" height="180" stroke="none"></rect>
<text stroke="none" font-family="Times" font-weight="italic" x="187.78" y="265">vexflow.com</text></svg>
